<?xml version="1.0" standalone="no"?>
 <!DOCTYPE svg PUBLIC "-//W3C//DTD SVG 1.1//EN" 
 "http://www.w3.org/Graphics/SVG/1.1/DTD/svg11.dtd"> 
<svg
  xmlns:svg="http://www.w3.org/2000/svg"
  xmlns="http://www.w3.org/2000/svg"
  xmlns:xlink="http://www.w3.org/1999/xlink"
  version="1.1"
  width="29.700220cm" height="21.000720cm" viewBox="0 0 116930 82680">
<title>SVG Picture created as cercane-F_Cu.svg date 2021/07/27 14:27:53 </title>
  <desc>Picture generated by PCBNEW </desc>
<g style="fill:#000000; fill-opacity:1;stroke:#000000; stroke-opacity:1;
stroke-linecap:round; stroke-linejoin:round;"
 transform="translate(0 0) scale(1 1)">
</g>
<g style="fill:#000000; fill-opacity:0.0; 
stroke:#000000; stroke-width:-0.000393701; stroke-opacity:1; 
stroke-linecap:round; stroke-linejoin:round;">
</g>
<g style="fill:#000000; fill-opacity:0.0; 
stroke:#000000; stroke-width:59.0551; stroke-opacity:1; 
stroke-linecap:round; stroke-linejoin:round;">
<text x="64000" y="23372"
textLength="2438.98" font-size="524.934" lengthAdjust="spacingAndGlyphs"
text-anchor="middle" opacity="0">Cercane</text>
<path d="M63137 23315
L63118 23334
L63062 23353
L63025 23353
L62968 23334
L62931 23297
L62912 23259
L62893 23184
L62893 23128
L62912 23053
L62931 23015
L62968 22978
L63025 22959
L63062 22959
L63118 22978
L63137 22997
" />
<path d="M63456 23334
L63418 23353
L63343 23353
L63306 23334
L63287 23297
L63287 23147
L63306 23109
L63343 23090
L63418 23090
L63456 23109
L63475 23147
L63475 23184
L63287 23222
" />
<path d="M63643 23353
L63643 23090
" />
<path d="M63643 23165
L63662 23128
L63681 23109
L63718 23090
L63756 23090
" />
<path d="M64056 23334
L64018 23353
L63943 23353
L63906 23334
L63887 23315
L63868 23278
L63868 23165
L63887 23128
L63906 23109
L63943 23090
L64018 23090
L64056 23109
" />
<path d="M64393 23353
L64393 23147
L64374 23109
L64337 23090
L64262 23090
L64224 23109
" />
<path d="M64393 23334
L64356 23353
L64262 23353
L64224 23334
L64206 23297
L64206 23259
L64224 23222
L64262 23203
L64356 23203
L64393 23184
" />
<path d="M64581 23090
L64581 23353
" />
<path d="M64581 23128
L64599 23109
L64637 23090
L64693 23090
L64731 23109
L64749 23147
L64749 23353
" />
<path d="M65087 23334
L65049 23353
L64974 23353
L64937 23334
L64918 23297
L64918 23147
L64937 23109
L64974 23090
L65049 23090
L65087 23109
L65106 23147
L65106 23184
L64918 23222
" />
<text x="64000" y="24021.7"
textLength="1501.59" font-size="524.934" lengthAdjust="spacingAndGlyphs"
text-anchor="middle" opacity="0">v.0.1</text>
<path d="M63343 23740
L63437 24002
L63531 23740
" />
<path d="M63681 23965
L63700 23984
L63681 24002
L63662 23984
L63681 23965
L63681 24002
" />
<path d="M63943 23609
L63981 23609
L64018 23627
L64037 23646
L64056 23684
L64074 23759
L64074 23852
L64056 23927
L64037 23965
L64018 23984
L63981 24002
L63943 24002
L63906 23984
L63887 23965
L63868 23927
L63850 23852
L63850 23759
L63868 23684
L63887 23646
L63906 23627
L63943 23609
" />
<path d="M64243 23965
L64262 23984
L64243 24002
L64224 23984
L64243 23965
L64243 24002
" />
<path d="M64637 24002
L64412 24002
" />
<path d="M64524 24002
L64524 23609
L64487 23665
L64449 23702
L64412 23721
" />
<g >
</g>
<g style="fill:#000000; fill-opacity:0.0; 
stroke:#000000; stroke-width:0; stroke-opacity:1; 
stroke-linecap:round; stroke-linejoin:round;">
</g>
<g style="fill:#000000; fill-opacity:1.0; 
stroke:#000000; stroke-width:0; stroke-opacity:1; 
stroke-linecap:round; stroke-linejoin:round;">
<path style="fill:#000000; fill-opacity:1.0; 
stroke:#000000; stroke-width:0; stroke-opacity:1; 
stroke-linecap:round; stroke-linejoin:round;fill-rule:evenodd;"
d="M 57425.2,25696.9
57425.2,25303.1
58606.3,25303.1
58606.3,25696.9
Z" /> 
<path style="fill:#000000; fill-opacity:1.0; 
stroke:#000000; stroke-width:0; stroke-opacity:1; 
stroke-linecap:round; stroke-linejoin:round;fill-rule:evenodd;"
d="M 59409.4,25696.9
59409.4,25303.1
60590.6,25303.1
60590.6,25696.9
Z" /> 
<path style="fill:#000000; fill-opacity:1.0; 
stroke:#000000; stroke-width:0; stroke-opacity:1; 
stroke-linecap:round; stroke-linejoin:round;fill-rule:evenodd;"
d="M 57425.2,24696.9
57425.2,24303.1
58606.3,24303.1
58606.3,24696.9
Z" /> 
<path style="fill:#000000; fill-opacity:1.0; 
stroke:#000000; stroke-width:0; stroke-opacity:1; 
stroke-linecap:round; stroke-linejoin:round;fill-rule:evenodd;"
d="M 59409.4,24696.9
59409.4,24303.1
60590.6,24303.1
60590.6,24696.9
Z" /> 
<path style="fill:#000000; fill-opacity:1.0; 
stroke:#000000; stroke-width:0; stroke-opacity:1; 
stroke-linecap:round; stroke-linejoin:round;fill-rule:evenodd;"
d="M 57425.2,23696.9
57425.2,23303.1
58606.3,23303.1
58606.3,23696.9
Z" /> 
<path style="fill:#000000; fill-opacity:1.0; 
stroke:#000000; stroke-width:0; stroke-opacity:1; 
stroke-linecap:round; stroke-linejoin:round;fill-rule:evenodd;"
d="M 59409.4,23696.9
59409.4,23303.1
60590.6,23303.1
60590.6,23696.9
Z" /> 
</g>
<g >
</g>
<g style="fill:#000000; fill-opacity:1.0; 
stroke:#000000; stroke-width:0; stroke-opacity:1; 
stroke-linecap:round; stroke-linejoin:round;">
<path style="fill:#000000; fill-opacity:1.0; 
stroke:#000000; stroke-width:0; stroke-opacity:1; 
stroke-linecap:round; stroke-linejoin:round;fill-rule:evenodd;"
d="M 55476.2,25646.1
55485.7,25647.6
55495.1,25649.9
55504.2,25653.2
55512.9,25657.3
55521.2,25662.3
55529,25668
55536.1,25674.5
55542.6,25681.7
55548.4,25689.4
55553.3,25697.7
55557.5,25706.4
55560.7,25715.5
55563.1,25724.9
55564.5,25734.4
55565,25744.1
55565,26255.9
55564.5,26265.6
55563.1,26275.1
55560.7,26284.5
55557.5,26293.6
55553.3,26302.3
55548.4,26310.6
55542.6,26318.3
55536.1,26325.5
55529,26332
55521.2,26337.7
55512.9,26342.7
55504.2,26346.8
55495.1,26350.1
55485.7,26352.4
55476.2,26353.9
55466.5,26354.3
55210.6,26354.3
55201,26353.9
55191.4,26352.4
55182.1,26350.1
55173,26346.8
55164.2,26342.7
55155.9,26337.7
55148.2,26332
55141,26325.5
55134.5,26318.3
55128.8,26310.6
55123.8,26302.3
55119.7,26293.6
55116.4,26284.5
55114.1,26275.1
55112.7,26265.6
55112.2,26255.9
55112.2,25744.1
55112.7,25734.4
55114.1,25724.9
55116.4,25715.5
55119.7,25706.4
55123.8,25697.7
55128.8,25689.4
55134.5,25681.7
55141,25674.5
55148.2,25668
55155.9,25662.3
55164.2,25657.3
55173,25653.2
55182.1,25649.9
55191.4,25647.6
55201,25646.1
55210.6,25645.7
55466.5,25645.7
Z" /> 
<path style="fill:#000000; fill-opacity:1.0; 
stroke:#000000; stroke-width:0; stroke-opacity:1; 
stroke-linecap:round; stroke-linejoin:round;fill-rule:evenodd;"
d="M 56637.6,25646.1
56647.2,25647.6
56656.5,25649.9
56665.6,25653.2
56674.4,25657.3
56682.6,25662.3
56690.4,25668
56697.5,25674.5
56704,25681.7
56709.8,25689.4
56714.8,25697.7
56718.9,25706.4
56722.1,25715.5
56724.5,25724.9
56725.9,25734.4
56726.4,25744.1
56726.4,26255.9
56725.9,26265.6
56724.5,26275.1
56722.1,26284.5
56718.9,26293.6
56714.8,26302.3
56709.8,26310.6
56704,26318.3
56697.5,26325.5
56690.4,26332
56682.6,26337.7
56674.4,26342.7
56665.6,26346.8
56656.5,26350.1
56647.2,26352.4
56637.6,26353.9
56628,26354.3
56372,26354.3
56362.4,26353.9
56352.8,26352.4
56343.5,26350.1
56334.4,26346.8
56325.6,26342.7
56317.4,26337.7
56309.6,26332
56302.4,26325.5
56296,26318.3
56290.2,26310.6
56285.2,26302.3
56281.1,26293.6
56277.9,26284.5
56275.5,26275.1
56274.1,26265.6
56273.6,26255.9
56273.6,25744.1
56274.1,25734.4
56275.5,25724.9
56277.9,25715.5
56281.1,25706.4
56285.2,25697.7
56290.2,25689.4
56296,25681.7
56302.4,25674.5
56309.6,25668
56317.4,25662.3
56325.6,25657.3
56334.4,25653.2
56343.5,25649.9
56352.8,25647.6
56362.4,25646.1
56372,25645.7
56628,25645.7
Z" /> 
</g>
<g >
</g>
<g style="fill:#000000; fill-opacity:1.0; 
stroke:#000000; stroke-width:0; stroke-opacity:1; 
stroke-linecap:round; stroke-linejoin:round;">
<circle cx="55255.9" cy="30114.2" r="300" /> 
</g>
<g style="fill:#000000; fill-opacity:1.0; 
stroke:#000000; stroke-width:39.3701; stroke-opacity:1; 
stroke-linecap:round; stroke-linejoin:round;">
</g>
<g style="fill:#000000; fill-opacity:1.0; 
stroke:#000000; stroke-width:0; stroke-opacity:1; 
stroke-linecap:round; stroke-linejoin:round;">
<circle cx="54255.9" cy="30114.2" r="300" /> 
</g>
<g style="fill:#000000; fill-opacity:1.0; 
stroke:#000000; stroke-width:39.3701; stroke-opacity:1; 
stroke-linecap:round; stroke-linejoin:round;">
</g>
<g style="fill:#000000; fill-opacity:1.0; 
stroke:#000000; stroke-width:0; stroke-opacity:1; 
stroke-linecap:round; stroke-linejoin:round;">
<circle cx="55255.9" cy="29114.2" r="300" /> 
</g>
<g style="fill:#000000; fill-opacity:1.0; 
stroke:#000000; stroke-width:39.3701; stroke-opacity:1; 
stroke-linecap:round; stroke-linejoin:round;">
</g>
<g style="fill:#000000; fill-opacity:1.0; 
stroke:#000000; stroke-width:0; stroke-opacity:1; 
stroke-linecap:round; stroke-linejoin:round;">
<circle cx="54255.9" cy="29114.2" r="300" /> 
</g>
<g style="fill:#000000; fill-opacity:1.0; 
stroke:#000000; stroke-width:39.3701; stroke-opacity:1; 
stroke-linecap:round; stroke-linejoin:round;">
</g>
<g style="fill:#000000; fill-opacity:1.0; 
stroke:#000000; stroke-width:0; stroke-opacity:1; 
stroke-linecap:round; stroke-linejoin:round;">
<circle cx="55255.9" cy="28114.2" r="300" /> 
</g>
<g style="fill:#000000; fill-opacity:1.0; 
stroke:#000000; stroke-width:39.3701; stroke-opacity:1; 
stroke-linecap:round; stroke-linejoin:round;">
</g>
<g style="fill:#000000; fill-opacity:1.0; 
stroke:#000000; stroke-width:0; stroke-opacity:1; 
stroke-linecap:round; stroke-linejoin:round;">
<circle cx="54255.9" cy="28114.2" r="300" /> 
</g>
<g style="fill:#000000; fill-opacity:1.0; 
stroke:#000000; stroke-width:39.3701; stroke-opacity:1; 
stroke-linecap:round; stroke-linejoin:round;">
</g>
<g style="fill:#000000; fill-opacity:1.0; 
stroke:#000000; stroke-width:0; stroke-opacity:1; 
stroke-linecap:round; stroke-linejoin:round;">
<circle cx="55255.9" cy="27114.2" r="300" /> 
</g>
<g style="fill:#000000; fill-opacity:1.0; 
stroke:#000000; stroke-width:39.3701; stroke-opacity:1; 
stroke-linecap:round; stroke-linejoin:round;">
</g>
<g style="fill:#000000; fill-opacity:1.0; 
stroke:#000000; stroke-width:0; stroke-opacity:1; 
stroke-linecap:round; stroke-linejoin:round;">
<path style="fill:#000000; fill-opacity:1.0; 
stroke:#000000; stroke-width:0; stroke-opacity:1; 
stroke-linecap:round; stroke-linejoin:round;fill-rule:evenodd;"
d="M 53955.9,27414.2
53955.9,26814.2
54555.9,26814.2
54555.9,27414.2
Z" /> 
</g>
<g >
</g>
<g style="fill:#000000; fill-opacity:1.0; 
stroke:#000000; stroke-width:0; stroke-opacity:1; 
stroke-linecap:round; stroke-linejoin:round;">
<path style="fill:#000000; fill-opacity:1.0; 
stroke:#000000; stroke-width:0; stroke-opacity:1; 
stroke-linecap:round; stroke-linejoin:round;fill-rule:evenodd;"
d="M 56163.4,23614.2
56163.4,23385.8
56836.6,23385.8
56836.6,23614.2
Z" /> 
<path style="fill:#000000; fill-opacity:1.0; 
stroke:#000000; stroke-width:0; stroke-opacity:1; 
stroke-linecap:round; stroke-linejoin:round;fill-rule:evenodd;"
d="M 56163.4,24114.2
56163.4,23885.8
56836.6,23885.8
56836.6,24114.2
Z" /> 
<path style="fill:#000000; fill-opacity:1.0; 
stroke:#000000; stroke-width:0; stroke-opacity:1; 
stroke-linecap:round; stroke-linejoin:round;fill-rule:evenodd;"
d="M 56163.4,24614.2
56163.4,24385.8
56836.6,24385.8
56836.6,24614.2
Z" /> 
<path style="fill:#000000; fill-opacity:1.0; 
stroke:#000000; stroke-width:0; stroke-opacity:1; 
stroke-linecap:round; stroke-linejoin:round;fill-rule:evenodd;"
d="M 56163.4,25114.2
56163.4,24885.8
56836.6,24885.8
56836.6,25114.2
Z" /> 
<path style="fill:#000000; fill-opacity:1.0; 
stroke:#000000; stroke-width:0; stroke-opacity:1; 
stroke-linecap:round; stroke-linejoin:round;fill-rule:evenodd;"
d="M 53305.1,25114.2
53305.1,24885.8
53978.3,24885.8
53978.3,25114.2
Z" /> 
<path style="fill:#000000; fill-opacity:1.0; 
stroke:#000000; stroke-width:0; stroke-opacity:1; 
stroke-linecap:round; stroke-linejoin:round;fill-rule:evenodd;"
d="M 53305.1,24614.2
53305.1,24385.8
53978.3,24385.8
53978.3,24614.2
Z" /> 
<path style="fill:#000000; fill-opacity:1.0; 
stroke:#000000; stroke-width:0; stroke-opacity:1; 
stroke-linecap:round; stroke-linejoin:round;fill-rule:evenodd;"
d="M 53305.1,24114.2
53305.1,23885.8
53978.3,23885.8
53978.3,24114.2
Z" /> 
<path style="fill:#000000; fill-opacity:1.0; 
stroke:#000000; stroke-width:0; stroke-opacity:1; 
stroke-linecap:round; stroke-linejoin:round;fill-rule:evenodd;"
d="M 53305.1,23614.2
53305.1,23385.8
53978.3,23385.8
53978.3,23614.2
Z" /> 
</g>
<g >
</g>
<g >
</g>
<g style="fill:#000000; fill-opacity:1.0; 
stroke:#000000; stroke-width:0; stroke-opacity:1; 
stroke-linecap:round; stroke-linejoin:round;">
</g>
<g style="fill:#000000; fill-opacity:1.0; 
stroke:#000000; stroke-width:118.11; stroke-opacity:1; 
stroke-linecap:round; stroke-linejoin:round;">
</g>
<g style="fill:#000000; fill-opacity:0.0; 
stroke:#000000; stroke-width:118.11; stroke-opacity:1; 
stroke-linecap:round; stroke-linejoin:round;">
<path d="M55255 28114
L55255 27755
" />
<path d="M54693 27193
L54693 24193
" />
<path d="M55255 27755
L54693 27193
" />
<path d="M54500 24000
L53641 24000
" />
<path d="M54693 24193
L54500 24000
" />
<path d="M53442 24500
L53641 24500
" />
<path d="M53167 24775
L53442 24500
" />
<path d="M53167 27025
L53167 24775
" />
<path d="M54255 28114
L53167 27025
" />
<path d="M56500 23500
L58015 23500
" />
<path d="M56500 23500
L55500 23500
" />
<path d="M55500 23500
L55000 24000
" />
<path d="M55000 24000
L55000 27000
" />
<path d="M55141 27000
L55255 27114
" />
<path d="M55000 27000
L55141 27000
" />
<path d="M55338 27031
L55255 27114
" />
<path d="M55338 26000
L55338 27031
" />
<path d="M54255 27114
L53614 27114
" />
<path d="M53614 27114
L53500 27000
" />
<path d="M53500 27000
L53500 25000
" />
<path d="M53500 25000
L53641 25000
" />
<path d="M58015 26002
L58015 25500
" />
<path d="M55045 28551
L55466 28551
" />
<path d="M55466 28551
L58015 26002
" />
<path d="M54693 28199
L55045 28551
" />
<path d="M54693 27551
L54693 28199
" />
<path d="M54255 27114
L54693 27551
" />
<path d="M57515 26000
L58015 25500
" />
<path d="M56500 26000
L57515 26000
" />
<path d="M57314 24165
L58665 24165
" />
<path d="M56500 24500
L56980 24500
" />
<path d="M56980 24500
L57314 24165
" />
<path d="M58665 24165
L58830 24000
" />
<path d="M59500 24000
L60000 23500
" />
<path d="M58830 24000
L59500 24000
" />
<path d="M59271 25801
L59271 24228
" />
<path d="M55396 29676
L59271 25801
" />
<path d="M54255 30114
L54693 29676
" />
<path d="M54693 29676
L55396 29676
" />
<path d="M59271 24228
L59500 24000
" />
<path d="M59870 25500
L60000 25500
" />
<path d="M55255 30114
L59870 25500
" />
<path d="M54818 30551
L55255 30114
" />
<path d="M53818 30324
L54045 30551
" />
<path d="M53818 29904
L53818 30324
" />
<path d="M54045 29676
L53818 29904
" />
<path d="M54415 29676
L54045 29676
" />
<path d="M54818 28904
L54818 29273
" />
<path d="M54590 28676
L54818 28904
" />
<path d="M54176 28676
L54590 28676
" />
<path d="M52970 27470
L54176 28676
" />
<path d="M54818 29273
L54415 29676
" />
<path d="M52970 23716
L52970 27470
" />
<path d="M53187 23500
L52970 23716
" />
<path d="M54045 30551
L54818 30551
" />
<path d="M53641 23500
L53187 23500
" />
<path d="M55255 29114
L55680 29114
" />
<path d="M58744 26050
L58744 24744
" />
<path d="M55680 29114
L58744 26050
" />
<path d="M58500 24500
L58015 24500
" />
<path d="M58744 24744
L58500 24500
" />
<path d="M57515 25000
L56500 25000
" />
<path d="M58015 24500
L57515 25000
" />
<path d="M54255 29114
L52614 29114
" />
<path d="M52614 29114
L52500 29000
" />
<path d="M52500 29000
L52500 23000
" />
<path d="M52500 23000
L53000 22500
" />
<path d="M61500 22500
L62000 23000
" />
<path d="M62000 23000
L62000 24000
" />
<path d="M61500 24500
L60000 24500
" />
<path d="M62000 24000
L61500 24500
" />
<path d="M53000 22500
L59500 22500
" />
<path d="M59500 22500
L61500 22500
" />
<path d="M57367 23834
L58665 23834
" />
<path d="M56500 24000
L57201 24000
" />
<path d="M57201 24000
L57367 23834
" />
<path d="M58665 23834
L60000 22500
" />
</g>
<g >
</g>
</g> 
</svg>
